<svg width="13" height="13" viewBox="0 0 13 13" fill="none" xmlns="http://www.w3.org/2000/svg">
    <path d="M2.94399 13C2.68799 13 2.47999 12.912 2.31999 12.736C2.15999 12.544 2.07999 12.328 2.07999 12.088C2.07999 11.896 2.14399 11.72 2.27199 11.56L10.072 2.08L9.97599 2.008L9.39999 2.656H3.83199C3.36799 2.656 3.00799 2.504 2.75199 2.2C2.51199 1.896 2.39199 1.496 2.39199 1H11.416C11.688 1 11.896 1.08 12.04 1.24C12.2 1.4 12.28 1.6 12.28 1.84C12.28 2.064 12.208 2.272 12.064 2.464L4.31199 11.872L4.43199 11.968L4.95999 11.344H10.912C11.376 11.344 11.728 11.496 11.968 11.8C12.224 12.104 12.352 12.504 12.352 13H2.94399Z" fill="#070707"/>
    <path d="M2.04 12C1.672 12 1.376 11.872 1.152 11.616C0.943996 11.344 0.839996 11.032 0.839996 10.68C0.839996 10.392 0.927996 10.144 1.104 9.936L8.256 1.752L8.112 1.632L7.368 2.424H3.096C2.504 2.424 2.048 2.2 1.728 1.752C1.424 1.304 1.272 0.72 1.272 0H10.656C11.024 0 11.32 0.127999 11.544 0.383999C11.768 0.623999 11.88 0.903999 11.88 1.224C11.88 1.56 11.776 1.84 11.568 2.064L4.416 10.248L4.584 10.392L5.328 9.576H10.08C10.672 9.576 11.12 9.8 11.424 10.248C11.728 10.696 11.88 11.28 11.88 12H2.04Z" fill="#39D30E"/>
</svg>
